<svg width="1132" viewBox="0 0 1132 804" height="804" xmlns:ev="http://www.w3.org/2001/xml-events" xmlns="http://www.w3.org/2000/svg" xmlns:xlink="http://www.w3.org/1999/xlink"><style type="text/css"><![CDATA[
.st6 {fill:#21305a;font-family:Arial;font-size:11pt}
.st7 {fill:#21305a;font-family:Arial;font-size:34pt;font-weight:bold}
.st2 {fill:#ffffff;font-family:Arial Black;font-size:16pt}
.st1 {fill:#ffffff;font-family:Arial Black;font-size:20pt}
.st5 {fill:#ffffff;font-family:Arial;font-size:16pt;font-weight:bold}
.st3 {fill:#ffffff;font-family:Arial;font-size:16pt}
.st4 {font-family:Arial Black}
]]></style><defs/><g transform="translate(5,5)" id="page1"><rect width="1123" stroke="#808080" y="0" height="794" x="0" fill="#f9fbfc"/><path stroke="#f88d83" transform="matrix(1,0,0,-1,270.8,729.3)" fill="none" id="shape1" d="M245.6,56.6L203.6,56.6M203.6,56.6L203.6,0M203.6,0L0,0"/><path stroke="#3598c2" transform="matrix(1,0,0,-1,804.2,596.3)" fill="none" id="shape2" d="M0,56.6L32.6,56.6M32.6,56.6L32.6,0M32.6,0L245.6,0"/><path stroke="#f88d83" transform="matrix(1,0,0,-1,804.2,373.9)" fill="none" id="shape3" d="M0,56.6L32.6,56.6M32.6,56.6L32.6,0M32.6,0L245.6,0"/><path stroke="#3598c2" transform="matrix(1,0,0,-1,613.8,231.9)" fill="none" id="shape4" d="M0,57.6L31.8,57.6M31.8,57.6L31.8,0M31.8,0L239.6,0"/><path stroke="#f88d83" transform="matrix(1,0,0,-1,79.2,373.9)" fill="none" id="shape5" d="M245.6,56.6L203.6,56.6M203.6,56.6L203.6,0M203.6,0L0,0"/><path stroke="#3598c2" transform="matrix(1,0,0,-1,79.2,596.3)" fill="none" id="shape6" d="M245.6,56.6L203.6,56.6M203.6,56.6L203.6,0M203.6,0L0,0"/><g transform="translate(482.02,348.28)"><g id="shape7"><path stroke="#ffdead" fill="#ffdead" d="M0,78C0,34.9,34.9,0,78,0C121.1,0,156,34.9,156,78C156,121.1,121.1,156,78,156C34.9,156,0,121.1,0,78z"/><text class="st1"><tspan y="88" x="25">Scripts</tspan></text></g><g transform="translate(10,-210)"><g id="shape8"><path stroke="#3598c2" fill="#3598c2" d="M0,68C0,30.4,30.4,0,68,0C105.6,0,136,30.4,136,68C136,105.6,105.6,136,68,136C30.4,136,0,105.6,0,68z"/><text class="st2"><tspan y="60" x="32">Active</tspan><tspan y="90" x="15">Directory</tspan></text></g><path stroke="#3598c2" transform="matrix(-1,-0,0,1,87.2,159.8)" fill="#3598c2" id="shape9" d="M19.2,0L38.3,17.2L29.9,17.2L29.9,26.4L8.4,26.4L8.4,17.2L0,17.2L19.2,0z"/></g><g transform="translate(200.53,-100)"><g id="shape10"><path stroke="#f88d83" fill="#f88d83" d="M0,68C0,30.4,30.4,0,68,0C105.6,0,136,30.4,136,68C136,105.6,105.6,136,68,136C30.4,136,0,105.6,0,68z"/><text class="st2"><tspan y="75" x="51">Git</tspan></text></g><path stroke="#f88d83" transform="matrix(-0.5,-0.87,-0.87,0.5,-1.9,130.5)" fill="#f88d83" id="shape11" d="M19.2,0L38.3,17.2L29.9,17.2L29.9,26.4L8.4,26.4L8.4,17.2L0,17.2L19.2,0z"/></g><g transform="translate(200.53,120)"><g id="shape12"><path stroke="#3598c2" fill="#3598c2" d="M0,68C0,30.4,30.4,0,68,0C105.6,0,136,30.4,136,68C136,105.6,105.6,136,68,136C30.4,136,0,105.6,0,68z"/><text class="st3"><tspan y="60" x="28" class="st4">MySQL </tspan><tspan y="90" x="36" class="st4">Dump</tspan></text></g><path stroke="#3598c2" transform="matrix(-0.5,0.87,-0.87,-0.5,-1.9,5.5)" fill="#3598c2" id="shape13" d="M19.2,0L38.3,17.2L29.9,17.2L29.9,26.4L8.4,26.4L8.4,17.2L0,17.2L19.2,0z"/></g><g transform="translate(10,230)"><g id="shape14"><path stroke="#f88d83" fill="#f88d83" d="M0,68C0,30.4,30.4,0,68,0C105.6,0,136,30.4,136,68C136,105.6,105.6,136,68,136C30.4,136,0,105.6,0,68z"/><text class="st3"><tspan y="60" x="28" class="st4">Nodejs </tspan><tspan y="90" x="27" class="st4">Update</tspan></text></g><path stroke="#f88d83" transform="matrix(1,0,0,-1,48.8,-23.8)" fill="#f88d83" id="shape15" d="M19.2,0L38.3,17.2L29.9,17.2L29.9,26.4L8.4,26.4L8.4,17.2L0,17.2L19.2,0z"/></g><g transform="translate(-180.53,120)"><g id="shape16"><path stroke="#3598c2" fill="#3598c2" d="M0,68C0,30.4,30.4,0,68,0C105.6,0,136,30.4,136,68C136,105.6,105.6,136,68,136C30.4,136,0,105.6,0,68z"/><text class="st3"><tspan y="60" x="13" class="st4">Computer </tspan><tspan y="90" x="30" class="st4">Report</tspan></text></g><path stroke="#3598c2" transform="matrix(-0.5,-0.87,0.87,-0.5,157.1,38.7)" fill="#3598c2" id="shape17" d="M19.2,0L38.3,17.2L29.9,17.2L29.9,26.4L8.4,26.4L8.4,17.2L0,17.2L19.2,0z"/></g><g transform="translate(-180.53,-100)"><g id="shape18"><path stroke="#f88d83" fill="#f88d83" d="M0,68C0,30.4,30.4,0,68,0C105.6,0,136,30.4,136,68C136,105.6,105.6,136,68,136C30.4,136,0,105.6,0,68z"/><text class="st5"><tspan y="62.5" x="15" class="st4">Compose </tspan><tspan y="89.5" x="33">Update</tspan></text></g><path stroke="#f88d83" transform="matrix(-0.5,0.87,0.87,0.5,157.1,97.3)" fill="#f88d83" id="shape19" d="M19.2,0L38.3,17.2L29.9,17.2L29.9,26.4L8.4,26.4L8.4,17.2L0,17.2L19.2,0z"/></g></g><g transform="translate(844.76,292.28)" id="shape20"><text class="st6"><tspan y="4" x="28">Através desse script é </tspan><tspan y="21" x="27">possível automatizar a </tspan><tspan y="38" x="6">verificação e atualização dos </tspan><tspan y="55" x="31">seus repositórios Git.</tspan></text></g><g transform="translate(844.76,519.28)" id="shape21"><text class="st6"><tspan y="12.5" x="28">Através desse script é </tspan><tspan y="29.5" x="11">possível realizar o dump do </tspan><tspan y="46.5" x="74">MySQL.</tspan></text></g><g transform="translate(72.76,292.28)" id="shape22"><text class="st6"><tspan y="12.5" x="28">Através desse script é </tspan><tspan y="29.5" x="38">possível atualizar o </tspan><tspan y="46.5" x="66">composer.</tspan></text></g><g transform="translate(72.76,519.28)" id="shape23"><text class="st6"><tspan y="4" x="22">Através desse módulo é </tspan><tspan y="21" x="16">possível realizar o backup </tspan><tspan y="38" x="8">dos drivers do windows e da </tspan><tspan y="55" x="34">imagem do sistema.</tspan></text></g><g transform="translate(656.76,156.28)" id="shape24"><text class="st6"><tspan y="-4.5" x="22">Através desse módulo é </tspan><tspan y="12.5" x="11">possível extrair os grupos e </tspan><tspan y="29.5" x="11">seus respectivos membros </tspan><tspan y="46.5" x="7">além dos computadores que </tspan><tspan y="63.5" x="43">estão no domínio.</tspan></text></g><g transform="translate(264.76,654.28)" id="shape25"><text class="st6"><tspan y="21" x="28">Através desse script é </tspan><tspan y="38" x="12">possível atualizar o Nodejs.</tspan></text></g><g transform="translate(72.76,45)" id="shape26"><text class="st7"><tspan y="50" x="12.3">Powershell - Modules and Scripts</tspan></text></g><g transform="translate(461.26,371.85)" id="shape27"><text class="st6"><tspan y="397.3" x="-3.5">Desenvolvido por: Danilo Righetto</tspan></text></g></g></svg>