<svg width="1058" height="843" xmlns:xlink="http://www.w3.org/1999/xlink" viewBox="0 0 1058 843" xmlns="http://www.w3.org/2000/svg" xmlns:ev="http://www.w3.org/2001/xml-events"><style type="text/css"><![CDATA[
.st2 {fill:#2c4054;font-family:Calibri;font-size:14pt;font-weight:bold}
.st1 {fill:#ffffff;font-family:Calibri;font-size:12pt}
]]></style><defs/><g id="page1" transform="translate(5,5)"><rect width="1048" height="833" stroke="#808080" fill="#ffffff" x="0" y="0"/><path fill="#ffffff" d="M0,0L1048,0L1048,833L0,833L0,0z" id="shape1"/><path stroke="#32475e" fill="none" d="M0,0C0,-94.7,64.9,-210.5,118,-210.5" id="shape2" transform="translate(162,390.5)"/><path stroke="#32475e" fill="none" d="M0,0C0,94.7,64.9,210.5,118,210.5" id="shape3" transform="translate(162,390.5)"/><path stroke="#32475e" fill="none" d="M0,0C0,-59.6,64.9,-132.5,118,-132.5" id="shape4" transform="translate(162,390.5)"/><path stroke="#32475e" fill="none" d="M0,0C0,56.5,64.9,125.5,118,125.5" id="shape5" transform="translate(162,390.5)"/><path stroke="#32475e" fill="none" d="M0,0C0,-24.5,64.9,-54.5,118,-54.5" id="shape6" transform="translate(162,390.5)"/><path stroke="#32475e" fill="none" d="M0,0C0,18.2,64.9,40.5,118,40.5" id="shape7" transform="translate(162,390.5)"/><path stroke="#32475e" fill="none" d="M0,0L14.4,0L14.4,-6C14.4,-12.6,18.8,-17,25.4,-17L36,-17" id="shape8" transform="translate(400,180)"/><path stroke="#32475e" fill="none" d="M0,0L14.4,0L14.4,6C14.4,12.6,18.8,17,25.4,17L36,17" id="shape9" transform="translate(400,180)"/><path stroke="#32475e" fill="none" d="M0,0L14.4,0L14.4,-6C14.4,-12.6,18.8,-17,25.4,-17L36,-17" id="shape10" transform="translate(412,258)"/><path stroke="#32475e" fill="none" d="M0,0L14.4,0L14.4,6C14.4,12.6,18.8,17,25.4,17L36,17" id="shape11" transform="translate(412,258)"/><path stroke="#32475e" fill="none" d="M0,0L14.4,0L14.4,-23C14.4,-29.6,18.8,-34,25.4,-34L36,-34" id="shape12" transform="translate(392,601)"/><path stroke="#32475e" fill="none" d="M0,0L14.4,0C14.4,0,14.4,0,14.4,0L36,0" id="shape13" transform="translate(392,601)"/><path stroke="#32475e" fill="none" d="M0,0L14.4,0L14.4,23C14.4,29.6,18.8,34,25.4,34L36,34" id="shape14" transform="translate(392,601)"/><path stroke="#32475e" fill="none" d="M0,0L14.4,0L14.4,-23C14.4,-29.6,18.8,-34,25.4,-34L36,-34" id="shape15" transform="translate(318,431)"/><path stroke="#32475e" fill="none" d="M0,0L14.4,0C14.4,0,14.4,0,14.4,0L36,0" id="shape16" transform="translate(318,431)"/><path stroke="#32475e" fill="none" d="M0,0L14.4,0L14.4,23C14.4,29.6,18.8,34,25.4,34L36,34" id="shape17" transform="translate(318,431)"/><path stroke="#32475e" fill="none" d="M0,0L14.4,0L14.4,-6C14.4,-12.6,18.8,-17,25.4,-17L36,-17" id="shape18" transform="translate(406,336)"/><path stroke="#32475e" fill="none" d="M0,0L14.4,0L14.4,6C14.4,12.6,18.8,17,25.4,17L36,17" id="shape19" transform="translate(406,336)"/><path stroke="#32475e" fill="none" d="M0,0L14.4,0C14.4,0,14.4,0,14.4,0L36,0" id="shape20" transform="translate(384,516)"/><g transform="translate(280,161)"><path stroke="#f56582" fill="#f56582" d="M6.8,0L113.2,0C116.9,0,120,3.1,120,6.8L120,31.2C120,34.9,116.9,38,113.2,38L6.8,38C3.1,38,0,34.9,0,31.2L0,6.8C0,3.1,3.1,0,6.8,0z" id="shape21"/><text class="st1"><tspan x="10" y="23.5">Active Directory</tspan></text></g><g transform="translate(280,239)"><path stroke="#f56582" fill="#f56582" d="M6.8,0L125.2,0C128.9,0,132,3.1,132,6.8L132,31.2C132,34.9,128.9,38,125.2,38L6.8,38C3.1,38,0,34.9,0,31.2L0,6.8C0,3.1,3.1,0,6.8,0z" id="shape22"/><text class="st1"><tspan x="10" y="23.5">Composer Update</tspan></text></g><g transform="translate(280,582)"><path stroke="#f56582" fill="#f56582" d="M6.8,0L105.2,0C108.9,0,112,3.1,112,6.8L112,31.2C112,34.9,108.9,38,105.2,38L6.8,38C3.1,38,0,34.9,0,31.2L0,6.8C0,3.1,3.1,0,6.8,0z" id="shape23"/><text class="st1"><tspan x="10" y="23.5">Nodejs Update</tspan></text></g><g transform="translate(280,412)"><path stroke="#f56582" fill="#f56582" d="M6.8,0L31.2,0C34.9,0,38,3.1,38,6.8L38,31.2C38,34.9,34.9,38,31.2,38L6.8,38C3.1,38,0,34.9,0,31.2L0,6.8C0,3.1,3.1,0,6.8,0z" id="shape24"/><text class="st1"><tspan x="10" y="23.5">Git</tspan></text></g><g transform="translate(280,317)"><path stroke="#f56582" fill="#f56582" d="M6.8,0L119.2,0C122.9,0,126,3.1,126,6.8L126,31.2C126,34.9,122.9,38,119.2,38L6.8,38C3.1,38,0,34.9,0,31.2L0,6.8C0,3.1,3.1,0,6.8,0z" id="shape25"/><text class="st1"><tspan x="10" y="23.5">Computer Report</tspan></text></g><g transform="translate(280,497)"><path stroke="#f56582" fill="#f56582" d="M6.8,0L97.2,0C100.9,0,104,3.1,104,6.8L104,31.2C104,34.9,100.9,38,97.2,38L6.8,38C3.1,38,0,34.9,0,31.2L0,6.8C0,3.1,3.1,0,6.8,0z" id="shape26"/><text class="st1"><tspan x="10" y="23.5">MySQL Dump</tspan></text></g><g transform="translate(436,151)"><path stroke="#476482" fill="#476482" d="M4.3,0L153.7,0C156.1,0,158,1.9,158,4.3L158,19.7C158,22.1,156.1,24,153.7,24L4.3,24C1.9,24,0,22.1,0,19.7L0,4.3C0,1.9,1.9,0,4.3,0z" id="shape27"/><text class="st1"><tspan x="5" y="16.5">Importação de Módulo</tspan></text></g><g transform="translate(436,185)"><path stroke="#476482" fill="#476482" d="M4.3,0L147.7,0C150.1,0,152,1.9,152,4.3L152,19.7C152,22.1,150.1,24,147.7,24L4.3,24C1.9,24,0,22.1,0,19.7L0,4.3C0,1.9,1.9,0,4.3,0z" id="shape28"/><text class="st1"><tspan x="5" y="16.5">Instalação de Módulo</tspan></text></g><g transform="translate(448,229)"><path stroke="#476482" fill="#476482" d="M4.3,0L147.7,0C150.1,0,152,1.9,152,4.3L152,19.7C152,22.1,150.1,24,147.7,24L4.3,24C1.9,24,0,22.1,0,19.7L0,4.3C0,1.9,1.9,0,4.3,0z" id="shape29"/><text class="st1"><tspan x="5" y="16.5">Verificação de Versão</tspan></text></g><g transform="translate(448,263)"><path stroke="#476482" fill="#476482" d="M4.3,0L167.7,0C170.1,0,172,1.9,172,4.3L172,19.7C172,22.1,170.1,24,167.7,24L4.3,24C1.9,24,0,22.1,0,19.7L0,4.3C0,1.9,1.9,0,4.3,0z" id="shape30"/><text class="st1"><tspan x="5" y="16.5">Comando de atualização</tspan></text></g><g transform="translate(428,555)"><path stroke="#476482" fill="#476482" d="M4.3,0L145.7,0C148.1,0,150,1.9,150,4.3L150,19.7C150,22.1,148.1,24,145.7,24L4.3,24C1.9,24,0,22.1,0,19.7L0,4.3C0,1.9,1.9,0,4.3,0z" id="shape31"/><text class="st1"><tspan x="5" y="16.5">Verificação de versão</tspan></text></g><g transform="translate(428,589)"><path stroke="#476482" fill="#476482" d="M4.3,0L253.7,0C256.1,0,258,1.9,258,4.3L258,19.7C258,22.1,256.1,24,253.7,24L4.3,24C1.9,24,0,22.1,0,19.7L0,4.3C0,1.9,1.9,0,4.3,0z" id="shape32"/><text class="st1"><tspan x="5" y="16.5">Atualizando o Node Package Manager</tspan></text></g><g transform="translate(428,623)"><path stroke="#476482" fill="#476482" d="M4.3,0L265.7,0C268.1,0,270,1.9,270,4.3L270,19.7C270,22.1,268.1,24,265.7,24L4.3,24C1.9,24,0,22.1,0,19.7L0,4.3C0,1.9,1.9,0,4.3,0z" id="shape33"/><text class="st1"><tspan x="5" y="16.5">Atualização de dependências do Nodejs</tspan></text></g><g transform="translate(354,385)"><path stroke="#476482" fill="#476482" d="M4.3,0L143.7,0C146.1,0,148,1.9,148,4.3L148,19.7C148,22.1,146.1,24,143.7,24L4.3,24C1.9,24,0,22.1,0,19.7L0,4.3C0,1.9,1.9,0,4.3,0z" id="shape34"/><text class="st1"><tspan x="5" y="16.5">Verificação de Status</tspan></text></g><g transform="translate(354,419)"><path stroke="#476482" fill="#476482" d="M4.3,0L175.7,0C178.1,0,180,1.9,180,4.3L180,19.7C180,22.1,178.1,24,175.7,24L4.3,24C1.9,24,0,22.1,0,19.7L0,4.3C0,1.9,1.9,0,4.3,0z" id="shape35"/><text class="st1"><tspan x="5" y="16.5">Baixar novas atualizações</tspan></text></g><g transform="translate(354,453)"><path stroke="#476482" fill="#476482" d="M4.3,0L211.7,0C214.1,0,216,1.9,216,4.3L216,19.7C216,22.1,214.1,24,211.7,24L4.3,24C1.9,24,0,22.1,0,19.7L0,4.3C0,1.9,1.9,0,4.3,0z" id="shape36"/><text class="st1"><tspan x="5" y="16.5">Gerando os logs da atualização</tspan></text></g><g transform="translate(442,307)"><path stroke="#476482" fill="#476482" d="M4.3,0L131.7,0C134.1,0,136,1.9,136,4.3L136,19.7C136,22.1,134.1,24,131.7,24L4.3,24C1.9,24,0,22.1,0,19.7L0,4.3C0,1.9,1.9,0,4.3,0z" id="shape37"/><text class="st1"><tspan x="5" y="16.5">Backup dos Drivers</tspan></text></g><g transform="translate(442,341)"><path stroke="#476482" fill="#476482" d="M4.3,0L169.7,0C172.1,0,174,1.9,174,4.3L174,19.7C174,22.1,172.1,24,169.7,24L4.3,24C1.9,24,0,22.1,0,19.7L0,4.3C0,1.9,1.9,0,4.3,0z" id="shape38"/><text class="st1"><tspan x="5" y="16.5">Criar imagem do sistema</tspan></text></g><g transform="translate(420,504)"><path stroke="#476482" fill="#476482" d="M4.3,0L167.7,0C170.1,0,172,1.9,172,4.3L172,19.7C172,22.1,170.1,24,167.7,24L4.3,24C1.9,24,0,22.1,0,19.7L0,4.3C0,1.9,1.9,0,4.3,0z" id="shape39"/><text class="st1"><tspan x="5" y="16.5">Dump da Base de Dados</tspan></text></g><g transform="translate(116,369.5)"><path stroke="#2dabab" fill="#2dabab" d="M7.6,0L84.4,0C88.6,0,92,3.4,92,7.6L92,34.4C92,38.6,88.6,42,84.4,42L7.6,42C3.4,42,0,38.6,0,34.4L0,7.6C0,3.4,3.4,0,7.6,0z" id="shape40"/><text class="st1"><tspan x="12" y="25.5">Powershell</tspan></text></g><g id="shape41" transform="translate(604,16)"><text class="st2"><tspan x="161" y="29">Desenvolvido por: Danilo Righetto</tspan></text></g></g></svg>